<svg width="860" height="774" viewBox="0 0 860 774" fill="none" xmlns="http://www.w3.org/2000/svg">
<rect x="1.56" y="1.56006" width="856.44" height="770.64" fill="#F4DCDC"/>
<path d="M211.817 188.292V293.02H106.689H1.56V1.56006H641.138M435.284 674.388H101.735H323V481.728H211.817V579.54H1.56L1.56 392.808H106.689M106.689 492.596V392.808M106.689 392.808H435.284V579.54H537.661M537.661 579.54V674.388H655.449M537.661 579.54V293.02M537.661 293.02H655.449M537.661 293.02H323V100.36M323 100.36H106.689V188.292M323 100.36H435.284M641.138 1.56006H858V772.2H1.56V674.388M641.138 1.56006V100.36M537.661 100.36V199.16M537.661 199.16H435.284M537.661 199.16H750.119M750.119 199.16V100.36M750.119 199.16V392.808M750.119 492.596V392.808M750.119 392.808H655.449V579.54H750.119V675.87" stroke="black" stroke-width="3.12" stroke-linecap="round"/>
</svg>
